<svg width="42" height="42" viewBox="0 0 42 42" fill="none" xmlns="http://www.w3.org/2000/svg">
<path d="M26.8477 22.5938H29.3086V25.0547H26.8477V22.5938Z" fill="#AE2922"/>
<path d="M21.1797 22.5938H23.6406V25.0547H21.1797V22.5938Z" fill="#AE2922"/>
<path d="M15.5156 22.5938H17.9766V25.0547H15.5156V22.5938Z" fill="#AE2922"/>
<path d="M42 9.70315C42 4.35282 37.6473 0 32.2969 0C28.3932 0 25.0212 2.31738 23.4828 5.64843H8.55734L7.99247 0H0V2.46094H5.76532L6.11855 5.99271L8.3662 28.4697C6.78546 29.0235 5.64843 30.5295 5.64843 32.2969C5.64843 34.5326 7.46739 36.3515 9.70315 36.3515H11.6069C11.3968 36.841 11.2801 37.3797 11.2801 37.9453C11.2801 40.181 13.099 42 15.3348 42C17.5705 42 19.3895 40.181 19.3895 37.9453C19.3895 37.3798 19.2727 36.8411 19.0627 36.3515H25.7618C25.5517 36.841 25.4349 37.3797 25.4349 37.9453C25.4349 40.181 27.2539 42 29.4897 42C31.7254 42 33.5444 40.181 33.5444 37.9453C33.5444 37.3798 33.4277 36.8411 33.2176 36.3515H36.2344V33.8906H9.70315C8.82435 33.8906 8.10936 33.1757 8.10936 32.2969C8.10936 31.418 8.82435 30.7031 9.70315 30.7031H36.2347L37.5171 17.8791C40.211 16.1532 42 13.1332 42 9.70315V9.70315ZM15.3347 39.5391C14.4559 39.5391 13.741 38.8241 13.741 37.9453C13.741 37.0665 14.4559 36.3516 15.3347 36.3516C16.2135 36.3516 16.9285 37.0665 16.9285 37.9453C16.9285 38.8241 16.2135 39.5391 15.3347 39.5391ZM29.4895 39.5391C28.6107 39.5391 27.8957 38.8241 27.8957 37.9453C27.8957 37.0665 28.6107 36.3516 29.4895 36.3516C30.3683 36.3516 31.0833 37.0665 31.0833 37.9453C31.0833 38.8241 30.3683 39.5391 29.4895 39.5391ZM32.2969 2.46094C36.2903 2.46094 39.5391 5.70979 39.5391 9.70315C39.5391 13.6965 36.2903 16.9454 32.2969 16.9454C28.3035 16.9454 25.0547 13.6965 25.0547 9.70315C25.0547 5.70979 28.3035 2.46094 32.2969 2.46094V2.46094ZM34.0074 28.2422H10.8166L8.80343 8.10936H22.7254C22.6393 8.62813 22.5938 9.16035 22.5938 9.70315C22.5938 15.0535 26.9466 19.4063 32.2969 19.4063C33.2082 19.4063 34.0905 19.2798 34.9273 19.0438L34.0074 28.2422Z" fill="#AE2922"/>
<path d="M37.0049 8.24794L35.2648 6.50781L31.4797 10.2929L29.3261 8.13933L27.5859 9.87946L31.4797 13.7732L37.0049 8.24794Z" fill="#AE2922"/>
</svg>
