<svg width="26" height="23" viewBox="0 0 26 23" fill="none" xmlns="http://www.w3.org/2000/svg">
<path d="M25.9132 7.19453L13.966 19.1417C13.8503 19.2574 13.6626 19.2574 13.5469 19.1417L6.85828 12.4531C6.74255 12.3374 6.74255 12.1497 6.85828 12.034L18.8054 0.0867988C18.9212 -0.0289329 19.1088 -0.0289329 19.2245 0.0867988L25.9131 6.77543C26.0289 6.89116 26.0289 7.0788 25.9132 7.19453Z" fill="#5CC45C"/>
<path d="M25.9122 6.7744L24.1104 4.97266L11.7441 17.3389L13.5459 19.1407C13.6616 19.2564 13.8493 19.2564 13.965 19.1407L25.9122 7.1935C26.0279 7.07777 26.0279 6.89013 25.9122 6.7744Z" fill="#4EAD4E"/>
<path d="M9.4268 13.0184C9.68746 12.5362 9.68746 11.9493 9.4268 11.467C9.39181 11.4023 9.40192 11.3226 9.45397 11.2705L18.044 2.68053C18.096 2.62848 18.1757 2.61838 18.2404 2.65341C18.7226 2.91408 19.3095 2.91408 19.7919 2.65336C19.8566 2.61838 19.9363 2.62848 19.9884 2.68048L23.3198 6.01192C23.3718 6.06397 23.3819 6.14365 23.3469 6.2084C23.0862 6.69072 23.0862 7.27751 23.3469 7.75983C23.3819 7.82458 23.3718 7.90425 23.3198 7.95631L14.7297 16.5464C14.6777 16.5984 14.598 16.6085 14.5333 16.5735C14.0509 16.3129 13.4641 16.3129 12.9819 16.5735C12.9171 16.6085 12.8375 16.5984 12.7854 16.5464L9.45397 13.2149C9.40192 13.1629 9.39181 13.0831 9.4268 13.0184Z" fill="#A0E557"/>
<path d="M23.345 7.75989C23.0843 7.27757 23.0843 6.69078 23.345 6.20846C23.38 6.14371 23.3699 6.06403 23.3179 6.01198L21.3997 4.09375C21.0551 4.62894 21.0551 5.32287 21.3997 5.85806L12.6295 14.6282C12.0943 14.2836 11.4003 14.2837 10.8652 14.6282L12.7835 16.5464C12.8355 16.5985 12.9152 16.6085 12.9799 16.5735C13.4622 16.3129 14.049 16.3129 14.5313 16.5736C14.5961 16.6086 14.6757 16.5985 14.7278 16.5464L23.3179 7.95637C23.3699 7.90437 23.38 7.82464 23.345 7.75989Z" fill="#93CC4A"/>
<path d="M18.11 11.3361C19.0615 10.3846 19.0615 8.84193 18.11 7.89042C17.1585 6.93892 15.6158 6.93892 14.6643 7.89042C13.7128 8.84193 13.7128 10.3846 14.6643 11.3361C15.6158 12.2876 17.1585 12.2876 18.11 11.3361Z" fill="#F3E8D7"/>
<path d="M13.496 15.4024L17.172 11.7264C17.5957 11.3027 17.7758 10.796 17.3522 10.3724C16.6845 9.5433 14.2472 10.2082 13.091 11.3643C12.5305 11.9249 11.8939 12.5616 11.5431 12.9127C11.3714 13.0844 11.1387 13.1809 10.8929 13.1809H10.8802C10.4746 13.1809 9.99955 12.7882 9.89494 12.3963L9.89469 8.99947L10.5013 8.39288L11.1677 7.72642L13.8147 5.07947C12.7257 4.95744 11.6429 4.89143 11.2228 4.8411C10.7558 4.78514 10.3575 4.99441 9.99503 5.29423L6.60641 7.96759C6.1282 8.36323 5.78344 8.89634 5.6183 9.49465C5.24835 10.8347 4.46911 13.205 3.97454 14.1476L1.50391 16.6183L5.78126 20.8956L6.97087 19.706C7.19447 19.4824 7.47092 19.319 7.7746 19.2309L10.2591 18.3944C11.0396 18.1266 11.7266 17.6401 12.2385 16.9928L13.496 15.4024Z" fill="#FCD7C3"/>
<path d="M12.2395 16.9905L13.4971 15.4002L17.1731 11.7241C17.5967 11.3005 17.7768 10.7938 17.3532 10.3702C17.1078 10.0654 16.6232 9.96253 16.0511 10.0117C15.2131 10.0838 14.4322 10.4669 13.8374 11.0617L11.498 13.4011L10.2405 14.9915C9.72869 15.6387 9.04161 16.1252 8.26109 16.393L5.77659 17.2296C5.47292 17.3176 5.19641 17.481 4.97282 17.7046L3.7832 18.8942L5.78228 20.8933L6.9719 19.7037C7.19549 19.4801 7.47194 19.3167 7.77562 19.2286L10.2601 18.3921C11.0407 18.1242 11.7278 17.6377 12.2395 16.9905Z" fill="#FFCDAC"/>
<path d="M5.08822 22.2606L0.137606 17.3099C-0.0458687 17.1264 -0.0458687 16.829 0.137606 16.6455L1.00882 15.7743C1.19229 15.5909 1.48972 15.5909 1.6732 15.7743L6.62387 20.725C6.80734 20.9085 6.80734 21.2059 6.62387 21.3894L5.75265 22.2605C5.56918 22.4441 5.2717 22.4441 5.08822 22.2606Z" fill="#464C50"/>
<path d="M6.6229 20.726L4.94379 19.0469L3.4082 20.5825L5.0873 22.2616C5.27078 22.445 5.56821 22.445 5.75168 22.2616L6.62284 21.3904C6.80637 21.2069 6.80637 20.9095 6.6229 20.726Z" fill="#33393A"/>
<path d="M17.0277 11.6081C16.5399 11.1202 15.7489 11.1202 15.261 11.6081L14.706 12.1631C14.4548 12.4143 14.4548 12.8215 14.706 13.0726L15.2645 13.6311L17.1576 11.738L17.0277 11.6081Z" fill="#EFEFEF"/>
</svg>
