<svg width="24" height="31" viewBox="0 0 24 31" fill="none" xmlns="http://www.w3.org/2000/svg">
<path d="M21.6923 3.83333H16.6154V2.875C16.6154 1.28716 15.3756 0 13.8462 0H10.1538C8.62442 0 7.38462 1.28716 7.38462 2.875V3.83333H2.30769C1.03321 3.83333 0 4.90601 0 6.22917V8.14583C0 8.67513 0.41325 9.10417 0.923077 9.10417H23.0769C23.5868 9.10417 24 8.67513 24 8.14583V6.22917C24 4.90601 22.9668 3.83333 21.6923 3.83333ZM9.23077 2.875C9.23077 2.34672 9.645 1.91667 10.1538 1.91667H13.8462C14.355 1.91667 14.7692 2.34672 14.7692 2.875V3.83333H9.23077V2.875Z" fill="#AFAEB3"/>
<path d="M1.75329 11.0156C1.58858 11.0156 1.45733 11.1585 1.46518 11.3294L2.22672 27.923C2.2971 29.4588 3.5121 30.6615 4.99249 30.6615H19.0106C20.4909 30.6615 21.7059 29.4588 21.7763 27.923L22.5379 11.3294C22.5457 11.1585 22.4145 11.0156 22.2498 11.0156H1.75329ZM15.6938 13.4115C15.6938 12.882 16.1069 12.4531 16.6169 12.4531C17.1269 12.4531 17.54 12.882 17.54 13.4115V25.8698C17.54 26.3993 17.1269 26.8281 16.6169 26.8281C16.1069 26.8281 15.6938 26.3993 15.6938 25.8698V13.4115ZM11.0784 13.4115C11.0784 12.882 11.4915 12.4531 12.0015 12.4531C12.5115 12.4531 12.9246 12.882 12.9246 13.4115V25.8698C12.9246 26.3993 12.5115 26.8281 12.0015 26.8281C11.4915 26.8281 11.0784 26.3993 11.0784 25.8698V13.4115ZM6.46306 13.4115C6.46306 12.882 6.87614 12.4531 7.38614 12.4531C7.89614 12.4531 8.30922 12.882 8.30922 13.4115V25.8698C8.30922 26.3993 7.89614 26.8281 7.38614 26.8281C6.87614 26.8281 6.46306 26.3993 6.46306 25.8698V13.4115Z" fill="#AFAEB3"/>
</svg>
