<svg width="97" height="30" viewBox="0 0 97 30" fill="none" xmlns="http://www.w3.org/2000/svg">
<path d="M49.9645 9.09091V20H48.6435V10.4759H48.5795L45.9162 12.2443V10.902L48.6435 9.09091H49.9645Z" fill="black"/>
<rect width="30" height="30" rx="5" fill="#AFAEB3"/>
<path d="M21.9091 14H8.09091C7.48873 14 7 14.504 7 15.125V15.875C7 16.496 7.48873 17 8.09091 17H21.9091C22.5113 17 23 16.496 23 15.875V15.125C23 14.504 22.5113 14 21.9091 14V14Z" fill="white"/>
<rect x="67" width="30" height="30" rx="5" fill="#AFAEB3"/>
<path d="M88.5714 13.5714H83.7143C83.5565 13.5714 83.4286 13.4435 83.4286 13.2857V8.42857C83.4286 7.63965 82.7889 7 82 7C81.2111 7 80.5714 7.63965 80.5714 8.42857V13.2857C80.5714 13.4435 80.4435 13.5714 80.2857 13.5714H75.4286C74.6396 13.5714 74 14.2111 74 15C74 15.7889 74.6396 16.4286 75.4286 16.4286H80.2857C80.4435 16.4286 80.5714 16.5565 80.5714 16.7143V21.5714C80.5714 22.3604 81.2111 23 82 23C82.7889 23 83.4286 22.3604 83.4286 21.5714V16.7143C83.4286 16.5565 83.5565 16.4286 83.7143 16.4286H88.5714C89.3604 16.4286 90 15.7889 90 15C90 14.2111 89.3604 13.5714 88.5714 13.5714Z" fill="white"/>
</svg>
