<svg xmlns="http://www.w3.org/2000/svg" width="43.1" height="43.1" viewBox="0 0 43.1 43.1">
  <g id="Group_13621" data-name="Group 13621" transform="translate(-8831.9 15590.1)">
    <g id="Group_13620" data-name="Group 13620" transform="translate(8830.5 -15592.5)">
      <g id="Group_13619" data-name="Group 13619" transform="translate(-212 -318)">
        <g id="ngicon" transform="translate(28.924 5.644)">
          <g id="Group_13618" data-name="Group 13618" transform="translate(-428.924 -94.644)">
            <g id="Group_13615" data-name="Group 13615">
              <path id="Path_1546" data-name="Path 1546" d="M653.5,417v32.5H621a1.5,1.5,0,0,0,0,3h34a1.5,1.5,0,0,0,1.5-1.5V417a1.5,1.5,0,0,0-3,0Z" fill="#fff"/>
            </g>
            <g id="Group_13616" data-name="Group 13616">
              <path id="Path_1547" data-name="Path 1547" d="M650.5,415a3.5,3.5,0,0,0-3.5-3.5H619a3.5,3.5,0,0,0-3.5,3.5v28a3.5,3.5,0,0,0,3.5,3.5h28a3.5,3.5,0,0,0,3.5-3.5Z" transform="translate(-1 -1)" fill="none" stroke="#fff" stroke-width="2.2"/>
            </g>
            <g id="Group_13617" data-name="Group 13617" transform="translate(-1 -1)">
              <path id="Path_1548" data-name="Path 1548" d="M631.5,427.5H627a1.5,1.5,0,0,0,0,3h4.5V435a1.5,1.5,0,0,0,3,0v-4.5H639a1.5,1.5,0,0,0,0-3h-4.5V423a1.5,1.5,0,0,0-3,0Z" fill="#fff"/>
            </g>
          </g>
        </g>
      </g>
    </g>
  </g>
</svg>
