<svg width="174" height="174" viewBox="0 0 174 174" fill="none" xmlns="http://www.w3.org/2000/svg">
<path d="M52.4359 59.8919C51.2443 58.9692 49.5229 59.1832 48.6715 60.4267C42.6653 69.1983 39.8204 79.7867 40.6599 90.439C41.5711 102.001 46.7572 112.808 55.2064 120.752C63.6556 128.697 74.7616 133.208 86.3573 133.406C97.9531 133.604 109.207 129.474 117.922 121.823C126.638 114.172 132.19 103.548 133.495 92.0241C134.8 80.5004 131.765 68.9037 124.982 59.4968C118.199 50.09 108.154 43.5479 96.808 41.1472C86.3541 38.9352 75.4864 40.385 66.0109 45.2046C64.6676 45.8878 64.2325 47.567 64.9931 48.8681V48.8681C65.7538 50.1692 67.4216 50.5984 68.7702 49.9256C77.0693 45.785 86.5523 44.5556 95.6782 46.4866C105.697 48.6064 114.566 54.3829 120.555 62.6889C126.545 70.995 129.225 81.2346 128.072 91.4099C126.919 101.585 122.017 110.966 114.322 117.722C106.626 124.478 96.6893 128.124 86.4505 127.949C76.2117 127.774 66.4053 123.791 58.9449 116.776C51.4845 109.761 46.9052 100.219 46.1007 90.0102C45.3678 80.7111 47.8149 71.4671 52.9954 63.7741C53.8372 62.524 53.6275 60.8146 52.4359 59.8919V59.8919Z" fill="#3DB340"/>
<path d="M72.9888 145.467C72.6988 146.677 73.4443 147.898 74.6644 148.144C86.8303 150.598 99.4713 149.37 110.962 144.589C123.146 139.52 133.409 130.716 140.274 119.444C147.138 108.172 150.251 95.0135 149.163 81.8609C148.138 69.458 143.428 57.6633 135.664 47.9805C134.885 47.0095 133.459 46.9072 132.516 47.7204V47.7204C131.574 48.5336 131.473 49.9539 132.249 50.9271C139.391 59.8862 143.725 70.7798 144.671 82.2323C145.68 94.4345 142.793 106.642 136.424 117.099C130.056 127.557 120.534 135.725 109.23 140.428C98.6203 144.843 86.953 145.992 75.7153 143.757C74.4946 143.515 73.2789 144.256 72.9888 145.467V145.467Z" fill="#3DB340"/>
<path d="M108.913 31.0868C109.381 29.8931 108.794 28.5417 107.583 28.1185C94.5025 23.5455 80.2461 23.4521 67.0734 27.8929C53.166 32.5814 41.3573 42.0237 33.7242 54.559C26.0911 67.0942 23.1226 81.9196 25.3408 96.4274C27.4418 110.169 34.0686 122.792 44.1356 132.314C45.0671 133.195 46.5374 133.097 47.3832 132.133V132.133C48.229 131.17 48.1299 129.706 47.201 128.822C37.9537 120.023 31.8664 108.387 29.9306 95.7256C27.8775 82.2978 30.625 68.576 37.6899 56.9738C44.7548 45.3717 55.6845 36.6322 68.5566 32.2927C80.6941 28.2009 93.8256 28.2682 105.888 32.4448C107.1 32.8643 108.445 32.2806 108.913 31.0868V31.0868Z" fill="#3DB340"/>
<path d="M104.576 63.6821L90.9176 77.3636C89.7754 76.7978 88.4907 76.4783 87.1326 76.4783C85.7742 76.4783 84.4898 76.7978 83.3476 77.3636L77.235 71.2403C76.1579 70.1616 74.4123 70.1616 73.335 71.2403C72.2581 72.319 72.2581 74.0681 73.335 75.1468L79.4476 81.27C78.8826 82.4142 78.5638 83.7012 78.5638 85.0616C78.5638 89.7946 82.4076 93.6453 87.1326 93.6453C91.8577 93.6453 95.7014 89.7946 95.7014 85.0616C95.7014 83.7012 95.3823 82.4142 94.8176 81.27L108.075 67.9899L108.475 67.5885C109.552 66.5099 109.552 64.7607 108.475 63.6821C107.399 62.6034 105.653 62.6034 104.576 63.6821ZM87.1326 88.1209C85.4488 88.1209 84.0789 86.7486 84.0789 85.0619C84.0789 83.3752 85.4488 82.0029 87.1326 82.0029C88.8164 82.0029 90.1863 83.3752 90.1863 85.0619C90.1863 86.7486 88.8164 88.1209 87.1326 88.1209Z" fill="#3DB340"/>
<path d="M116.615 82.5332H113.909C112.296 82.5332 110.988 83.6813 110.988 85.0976C110.988 86.5138 112.296 87.6619 113.909 87.6619H116.615C118.228 87.6619 119.536 86.5138 119.536 85.0976C119.536 83.6813 118.228 82.5332 116.615 82.5332Z" fill="#3DB340"/>
<path d="M60.2011 82.5332H57.4952C55.8822 82.5332 54.5742 83.6813 54.5742 85.0976C54.5742 86.5138 55.8822 87.6619 57.4952 87.6619H60.2011C61.8141 87.6619 63.1221 86.5138 63.1221 85.0976C63.1221 83.6813 61.8141 82.5332 60.2011 82.5332Z" fill="#3DB340"/>
<path d="M87.0526 61.1631C88.4687 61.1631 89.617 59.8554 89.617 58.2421V55.5362C89.617 53.9229 88.4687 52.6152 87.0526 52.6152C85.6366 52.6152 84.4883 53.9229 84.4883 55.5362V58.2421C84.4883 59.8554 85.6366 61.1631 87.0526 61.1631Z" fill="#3DB340"/>
<path d="M87.0526 109.029C85.6366 109.029 84.4883 110.337 84.4883 111.95V114.656C84.4883 116.269 85.6366 117.577 87.0526 117.577C88.4687 117.577 89.617 116.269 89.617 114.656V111.95C89.617 110.337 88.4687 109.029 87.0526 109.029Z" fill="#3DB340"/>
<circle cx="58.4708" cy="53.9201" r="3.24818" fill="#3DB340"/>
<circle cx="113.69" cy="33.7794" r="3.24818" fill="#3DB340"/>
<circle cx="66.2677" cy="142.272" r="3.24818" fill="#3DB340"/>
<path d="M49.6294 121.218C49.4723 121.012 49.2549 120.859 49.0072 120.782C48.7596 120.705 48.4941 120.708 48.2477 120.788C48.0014 120.869 47.7863 121.025 47.6325 121.234C47.4787 121.442 47.3938 121.694 47.3895 121.953L47.0331 131.999L37.163 130.104C36.9972 130.059 36.8239 130.049 36.654 130.074C36.4841 130.099 36.3213 130.159 36.1756 130.25C36.03 130.341 35.9048 130.461 35.8078 130.603C35.7108 130.745 35.644 130.905 35.6118 131.074C35.5796 131.243 35.5826 131.416 35.6206 131.584C35.6585 131.751 35.7307 131.909 35.8325 132.047C35.9343 132.186 36.0635 132.302 36.2121 132.388C36.3607 132.474 36.5255 132.528 36.6962 132.548L47.9913 134.722C48.1684 134.756 48.3508 134.752 48.526 134.709C48.7012 134.666 48.8651 134.585 49.0062 134.473C49.1473 134.36 49.2624 134.218 49.3434 134.057C49.4244 133.896 49.4695 133.719 49.4756 133.539L49.8818 122.039C49.8975 121.744 49.8082 121.453 49.6296 121.218L49.6294 121.218Z" fill="#3DB340"/>
<path d="M130.039 60.0102C130.206 60.2084 130.431 60.3496 130.682 60.4142C130.933 60.4787 131.198 60.4633 131.44 60.3703C131.682 60.2773 131.889 60.1111 132.032 59.895C132.175 59.6789 132.248 59.4235 132.239 59.1644L132.095 49.1134L142.047 50.5148C142.215 50.5514 142.389 50.5529 142.557 50.5192C142.725 50.4856 142.885 50.4175 143.026 50.3192C143.167 50.221 143.286 50.0948 143.376 49.9484C143.466 49.802 143.524 49.6386 143.548 49.4685C143.572 49.2984 143.56 49.1253 143.514 48.9599C143.468 48.7945 143.388 48.6404 143.279 48.5073C143.171 48.3742 143.036 48.2649 142.883 48.1863C142.73 48.1077 142.563 48.0615 142.392 48.0506L131.002 46.4416C130.824 46.4161 130.642 46.4296 130.469 46.4813C130.296 46.533 130.136 46.6216 130.001 46.741C129.866 46.8603 129.758 47.0076 129.685 47.1727C129.612 47.3377 129.576 47.5166 129.579 47.697L129.746 59.2029C129.745 59.4982 129.848 59.7844 130.038 60.0104L130.039 60.0102Z" fill="#3DB340"/>
</svg>
