<svg width="30" height="26" viewBox="0 0 30 26" fill="none" xmlns="http://www.w3.org/2000/svg">
<path d="M10.9145 13.4371C10.5713 13.0939 10.0148 13.0939 9.67151 13.4371L9.29464 13.8139C9.42325 10.778 11.933 8.3476 15 8.3476C16.5241 8.3476 17.958 8.94191 19.0377 10.0212C19.3809 10.3643 19.9374 10.3642 20.2806 10.0209C20.6237 9.67762 20.6236 9.12115 20.2804 8.77797C18.8688 7.36691 16.9935 6.58984 15 6.58984C10.9603 6.58984 7.65987 9.81367 7.5353 13.8236L7.14882 13.4371C6.80563 13.0939 6.24911 13.0939 5.90587 13.4371C5.56263 13.7804 5.56263 14.3368 5.90587 14.6801L7.78866 16.5629C7.96028 16.7345 8.18522 16.8203 8.41011 16.8203C8.63499 16.8203 8.85999 16.7345 9.03155 16.5629L10.9143 14.6801C11.2577 14.3368 11.2577 13.7804 10.9145 13.4371Z" fill="white"/>
<path d="M24.4141 3.76559H22.7534C22.3707 3.76559 22.0266 3.55289 21.8561 3.21211L21.5338 2.56729C20.7421 0.983731 19.1504 0 17.3798 0H12.6202C10.8496 0 9.25793 0.98373 8.46592 2.56787L8.14477 3.21059C7.9735 3.55295 7.62932 3.76564 7.24664 3.76564H5.58592C2.49621 3.76559 0 6.26637 0 9.35156V19.707C0 22.7972 2.50119 25.2929 5.58592 25.2929H24.4141C27.5038 25.2929 30 22.7921 30 19.707V9.35156C30 6.26139 27.4988 3.76559 24.4141 3.76559ZM28.2422 19.707C28.2422 21.8545 26.4938 23.5351 24.4141 23.5351H5.58592C3.50613 23.5351 1.75781 21.8545 1.75781 19.707V9.35156C1.75781 7.2041 3.50619 5.52346 5.58592 5.52346H7.24658C8.29922 5.52346 9.24568 4.93863 9.71754 3.99551L10.0384 3.35344C10.5305 2.36924 11.5198 1.75787 12.6202 1.75787H17.3799C18.4803 1.75787 19.4696 2.3693 19.9614 3.35291L20.2833 3.99715C20.7544 4.93863 21.7008 5.52346 22.7535 5.52346H24.4141C26.4939 5.52346 28.2422 7.20416 28.2422 9.35156V19.707H28.2422Z" fill="white"/>
<path d="M22.212 11.5543C22.0404 11.3827 21.8154 11.2969 21.5906 11.2969C21.3657 11.2969 21.1407 11.3827 20.9691 11.5543L19.0863 13.4371C18.7431 13.7804 18.7431 14.3368 19.0863 14.6801C19.4295 15.0233 19.986 15.0233 20.3293 14.6801L20.7061 14.3033C20.5775 17.3392 18.0678 19.7696 15.0008 19.7696C13.4767 19.7696 12.0428 19.1752 10.9631 18.096C10.6198 17.7529 10.0633 17.753 9.72016 18.0963C9.37704 18.4396 9.37715 18.9961 9.7204 19.3392C11.132 20.7503 13.0073 21.5273 15.0008 21.5273C19.0404 21.5273 22.3409 18.3035 22.4655 14.2936L22.852 14.6801C23.1951 15.0233 23.7517 15.0233 24.0949 14.6801C24.4381 14.3368 24.4381 13.7804 24.0949 13.4371L22.212 11.5543Z" fill="white"/>
</svg>
