<svg width="26" height="27" viewBox="0 0 26 27" fill="none" xmlns="http://www.w3.org/2000/svg">
<path d="M7.80015 26.0028H2.49605C1.11975 26.0028 0 24.883 0 23.5067V18.2026C0 17.7242 0.388274 17.3359 0.866683 17.3359C1.34509 17.3359 1.73337 17.7242 1.73337 18.2026V23.5067C1.73337 23.9271 2.07571 24.2694 2.49605 24.2694H7.80015C8.27855 24.2694 8.66683 24.6577 8.66683 25.1361C8.66683 25.6145 8.27855 26.0028 7.80015 26.0028Z" fill="white"/>
<path d="M23.5048 26.0028H18.2007C17.7214 26.0028 17.334 25.6145 17.334 25.1361C17.334 24.6577 17.7214 24.2694 18.2007 24.2694H23.5048C23.9251 24.2694 24.2674 23.9271 24.2674 23.5067V18.2026C24.2674 17.7242 24.6549 17.3359 25.1341 17.3359C25.6134 17.3359 26.0008 17.7242 26.0008 18.2026V23.5067C26.0008 24.883 24.8811 26.0028 23.5048 26.0028Z" fill="white"/>
<path d="M25.1341 8.66683C24.6549 8.66683 24.2674 8.27855 24.2674 7.80015V2.49605C24.2674 2.07571 23.9251 1.73337 23.5048 1.73337H18.2007C17.7214 1.73337 17.334 1.34509 17.334 0.866683C17.334 0.388274 17.7214 0 18.2007 0H23.5048C24.8811 0 26.0008 1.11975 26.0008 2.49605V7.80015C26.0008 8.27855 25.6134 8.66683 25.1341 8.66683Z" fill="white"/>
<path d="M0.866683 8.66683C0.388274 8.66683 0 8.27855 0 7.80015V2.49605C0 1.11975 1.11975 0 2.49605 0H7.80015C8.27855 0 8.66683 0.388274 8.66683 0.866683C8.66683 1.34509 8.27855 1.73337 7.80015 1.73337H2.49605C2.07571 1.73337 1.73337 2.07571 1.73337 2.49605V7.80015C1.73337 8.27855 1.34509 8.66683 0.866683 8.66683Z" fill="white"/>
<path d="M15.9713 17.7679H10.031C9.04039 17.7679 8.23438 16.9619 8.23438 15.9713V10.031C8.23438 9.04039 9.04039 8.23438 10.031 8.23438H15.9713C16.9627 8.23438 17.7679 9.04039 17.7679 10.031V15.9713C17.7679 16.9619 16.9619 17.7679 15.9713 17.7679ZM10.031 9.96774C9.99547 9.96774 9.96774 9.99634 9.96774 10.031V15.9713C9.96774 16.0068 9.99634 16.0345 10.031 16.0345H15.9713C16.0059 16.0345 16.0345 16.0059 16.0345 15.9713V10.031C16.0345 9.99547 16.0059 9.96774 15.9713 9.96774H10.031Z" fill="white"/>
</svg>
