<svg width="70" height="70" viewBox="0 0 70 70" fill="none" xmlns="http://www.w3.org/2000/svg">
<path d="M4.19308 21.7395C3.45225 21.4207 2.59009 21.7619 2.30237 22.5154C-0.635146 30.2081 -0.771077 38.7084 1.94811 46.514C4.82776 54.7803 10.7004 61.6675 18.4078 65.8172C26.1152 69.9669 35.0977 71.0779 43.5839 68.9311C51.5972 66.9039 58.6185 62.1108 63.4234 55.4234C63.894 54.7684 63.7042 53.8608 63.0301 53.4179V53.4179C62.3561 52.975 61.4533 53.1646 60.9802 53.8178C56.5782 59.8956 50.1726 64.2515 42.8676 66.0995C35.0896 68.0672 26.8566 67.0489 19.7924 63.2455C12.7282 59.442 7.34565 53.1296 4.7063 45.5532C2.22744 38.4374 2.33736 30.6918 4.98777 23.6711C5.27263 22.9165 4.93392 22.0584 4.19308 21.7395V21.7395Z" fill="#ED1A13"/>
<path d="M57.2164 22.494C57.8949 22.051 58.8076 22.2401 59.2145 22.9409C60.8653 25.7841 62.0044 28.8993 62.5758 32.1448C63.2322 35.8725 63.1259 39.6945 62.2635 43.38C61.401 47.0654 59.8003 50.5377 57.5581 53.5871C55.3159 56.6365 52.4786 59.1996 49.2179 61.1216C45.9572 63.0436 42.3406 64.2845 38.5868 64.7693C34.8329 65.2542 31.0198 64.9729 27.3777 63.9425C23.7356 62.9122 20.3403 61.1541 17.3968 58.7745C14.8342 56.7027 12.6603 54.1974 10.9723 51.3761C10.5563 50.6807 10.8329 49.7906 11.5491 49.4116V49.4116C12.2653 49.0325 13.1494 49.3084 13.5697 50.0012C15.0693 52.4732 16.9874 54.6703 19.2416 56.4926C21.8766 58.6228 24.9161 60.1967 28.1765 61.1191C31.4369 62.0415 34.8505 62.2932 38.2109 61.8592C41.5713 61.4252 44.8089 60.3143 47.7279 58.5937C50.6469 56.8732 53.1868 54.5787 55.1941 51.8489C57.2013 49.119 58.6343 46.0106 59.4064 42.7114C60.1784 39.4121 60.2735 35.9906 59.686 32.6536C59.1834 29.7989 58.1901 27.0567 56.7537 24.5474C56.3511 23.8442 56.538 22.937 57.2164 22.494V22.494Z" fill="#ED1A13"/>
</svg>
