<svg width="36" height="36" viewBox="0 0 36 36" fill="none" xmlns="http://www.w3.org/2000/svg">
<path d="M18 0C8.0744 0 0 8.0744 0 18C0 27.9256 8.0744 36 18 36C27.9256 36 36 27.9256 36 18C36 8.0744 27.9256 0 18 0Z" fill="#F44336"/>
<path d="M24.6286 22.5055C25.215 23.0922 25.215 24.04 24.6286 24.6267C24.3361 24.9192 23.9522 25.0661 23.5679 25.0661C23.1839 25.0661 22.8 24.9192 22.5075 24.6267L18 20.119L13.4926 24.6267C13.2001 24.9192 12.8161 25.0661 12.4322 25.0661C12.0479 25.0661 11.6639 24.9192 11.3714 24.6267C10.785 24.04 10.785 23.0922 11.3714 22.5055L15.8791 17.9981L11.3714 13.4907C10.785 12.904 10.785 11.9562 11.3714 11.3695C11.9581 10.7831 12.906 10.7831 13.4926 11.3695L18 15.8772L22.5075 11.3695C23.0941 10.7831 24.042 10.7831 24.6286 11.3695C25.215 11.9562 25.215 12.904 24.6286 13.4907L20.1209 17.9981L24.6286 22.5055Z" fill="#FAFAFA"/>
</svg>
