<svg width="15" height="22" viewBox="0 0 15 22" fill="none" xmlns="http://www.w3.org/2000/svg">
<path d="M2.83222 6.71766L8.55625 15.3602L3.56087 21.7086C3.49097 21.7987 3.40285 21.8715 3.30284 21.9218C3.20283 21.972 3.09342 21.9985 2.98246 21.9993C2.86248 22.0047 2.74301 21.98 2.63406 21.9271C2.52511 21.8743 2.42985 21.7949 2.35627 21.6957C2.2827 21.5964 2.23295 21.4801 2.2112 21.3566C2.18946 21.2331 2.19634 21.1059 2.23128 20.9857L4.9731 11.7853H1.48009C1.35059 11.785 1.22337 11.7496 1.11079 11.6826C0.998209 11.6157 0.904092 11.5194 0.837572 11.4032C0.771053 11.287 0.734391 11.1548 0.731145 11.0193C0.7279 10.8839 0.758181 10.7499 0.81905 10.6304L2.83222 6.71766ZM14.1751 7.50335C14.1121 7.37258 14.0154 7.26283 13.896 7.18647C13.7765 7.11012 13.639 7.0702 13.499 7.07122H9.51776L12.6502 1.17071C12.7161 1.05127 12.7508 0.915784 12.7508 0.777868C12.7508 0.639951 12.7161 0.504464 12.6502 0.385024C12.5831 0.266586 12.4874 0.168679 12.3727 0.101112C12.258 0.033544 12.1283 -0.00131121 11.9967 3.77174e-05H6.73838C6.60249 0.000416976 6.46924 0.0393457 6.35283 0.112677C6.23642 0.186008 6.14121 0.290994 6.07734 0.416452L4.43225 3.6142L10.5394 12.846L14.0775 8.35189C14.1673 8.23691 14.2242 8.09765 14.2415 7.95025C14.2588 7.80285 14.2357 7.65334 14.1751 7.51906V7.50335ZM14.8662 20.75L10.0436 13.4824L4.03412 4.39203L1.34488 0.337883C1.22696 0.17878 1.05515 0.0730876 0.864899 0.042614C0.674647 0.0121404 0.480471 0.0592104 0.322432 0.174112C0.164394 0.289014 0.0545524 0.46298 0.0155707 0.660117C-0.0234111 0.857255 0.0114412 1.06252 0.112937 1.23357L3.23035 5.94769L9.05203 14.7395L13.6343 21.6614C13.748 21.8321 13.9218 21.9486 14.1175 21.9854C14.3132 22.0222 14.5149 21.9763 14.6784 21.8578C14.8415 21.7389 14.9529 21.5571 14.9881 21.3524C15.0233 21.1477 14.9795 20.9367 14.8662 20.7657V20.75Z" fill="white"/>
</svg>
