<svg width="54" height="54" viewBox="0 0 54 54" fill="none" xmlns="http://www.w3.org/2000/svg">
<path d="M40.3691 13.6387V0L53.9969 13.6387H40.3691Z" fill="#B22D1E"/>
<path d="M38.7873 16.8027C37.9136 16.8027 37.2053 16.0944 37.2053 15.2208V0H10.8359C9.9622 0 9.25391 0.708296 9.25391 1.58196V22.1099H39.7365C42.3533 22.1099 44.4823 24.2389 44.4823 26.8558V43.0527C44.4823 45.6696 42.3533 47.7986 39.7365 47.7986H9.25391V52.4157C9.25391 53.2893 9.9622 53.9976 10.8359 53.9976H52.415C53.2887 53.9976 53.997 53.2893 53.997 52.4157V16.8027H38.7873Z" fill="#B22D1E"/>
<path d="M39.7366 25.2734H1.58196C0.708297 25.2734 0 25.9817 0 26.8554V43.0524C0 43.926 0.708297 44.6343 1.58196 44.6343H39.7365C40.6101 44.6343 41.3184 43.926 41.3184 43.0524V26.8554C41.3185 25.9817 40.6102 25.2734 39.7366 25.2734V25.2734ZM14.659 38.7874C14.5135 38.9609 14.355 39.1243 14.1882 39.2729C13.3359 40.032 12.2431 40.4331 11.0275 40.4331C8.00631 40.4331 5.54836 37.9751 5.54836 34.9538C5.54836 31.9326 8.00631 29.4746 11.0275 29.4746C12.1254 29.4746 13.185 29.7985 14.092 30.4112C14.6953 30.8188 14.854 31.6383 14.4463 32.2416C14.0388 32.8447 13.2192 33.0035 12.6159 32.5958C12.1466 32.2788 11.5974 32.1111 11.0275 32.1111C9.46014 32.1111 8.18497 33.3863 8.18497 34.9537C8.18497 36.5211 9.46014 37.7964 11.0275 37.7964C11.5942 37.7964 12.0675 37.6307 12.4344 37.3041C12.5062 37.2401 12.575 37.1691 12.6388 37.0928C13.1069 36.5351 13.9381 36.4621 14.496 36.9301C15.054 37.3981 15.1268 38.2296 14.659 38.7874V38.7874ZM24.5023 37.4862C24.2124 39.1098 22.6754 40.2883 20.8477 40.2883C19.3991 40.2883 18.0375 39.7027 17.1124 38.6818C16.6175 38.1357 16.6656 37.288 17.2242 36.8018C17.7696 36.3272 18.5951 36.4115 19.0906 36.938C19.5118 37.3856 20.1655 37.6518 20.8476 37.6518C21.4653 37.6518 21.8596 37.2865 21.9066 37.0229C21.9569 36.7417 21.4919 36.464 21.0786 36.3115C19.841 35.855 18.7412 35.3654 18.6949 35.3448C18.6313 35.3165 18.5702 35.2831 18.512 35.2453C17.5691 34.6304 17.0831 33.5526 17.2439 32.4324C17.4141 31.2471 18.2756 30.2831 19.4922 29.9166C21.3534 29.356 23.0858 30.2453 23.816 30.8591L23.8159 30.8597C24.3691 31.3276 24.4413 32.1551 23.9758 32.7116C23.5087 33.2702 22.6773 33.3441 22.1188 32.877L22.1189 32.8769C22.1111 32.8708 21.2014 32.1554 20.2528 32.4412C20.0227 32.5105 19.8773 32.6439 19.8538 32.8073C19.8537 32.808 19.8536 32.8089 19.8535 32.8096C19.8406 32.9047 19.9007 32.995 19.9888 33.0331C20.3592 33.1932 21.1502 33.5278 21.9913 33.838C24.1788 34.6447 24.7227 36.2515 24.5023 37.4862V37.4862ZM34.9053 31.2239L32.188 39.4031C31.9793 40.018 31.4104 40.4286 30.7698 40.4332C30.7663 40.4332 30.7626 40.4332 30.759 40.4332C30.1227 40.4332 29.5532 40.0317 29.3399 39.4313L26.4915 31.2253C26.2528 30.5375 26.6168 29.7864 27.3047 29.5476C27.9921 29.3091 28.7436 29.6729 28.9823 30.3607L30.7356 35.4119L32.4031 30.3927C32.6327 29.7017 33.3785 29.3276 34.0699 29.5573C34.7608 29.7868 35.1349 30.533 34.9053 31.2239V31.2239Z" fill="#B22D1E"/>
</svg>
