<svg width="101" height="95" viewBox="0 0 101 95" fill="none" xmlns="http://www.w3.org/2000/svg">
<path d="M100.884 44.8779V75.6512C101.187 78.2499 100.895 80.8829 100.028 83.3535C99.1616 85.8241 97.7434 88.0682 95.8797 89.918C94.0159 91.7678 91.7549 93.1754 89.2657 94.0354C86.7765 94.8955 84.1236 95.1858 81.5054 94.8846H19.4946C16.8764 95.1858 14.2235 94.8955 11.7343 94.0354C9.2451 93.1754 6.98406 91.7678 5.12032 89.918C3.25659 88.0682 1.83839 85.8241 0.971839 83.3535C0.105284 80.8829 -0.187204 78.2499 0.116257 75.6512V24.3623C-0.187204 21.7637 0.105284 19.1306 0.971839 16.66C1.83839 14.1894 3.25659 11.9453 5.12032 10.0955C6.98406 8.24573 9.2451 6.83815 11.7343 5.97808C14.2235 5.11801 16.8764 4.82771 19.4946 5.1289H55.6676C56.6955 5.1289 57.6812 5.53417 58.4081 6.25556C59.1349 6.97695 59.5432 7.95537 59.5432 8.97557C59.5432 9.99577 59.1349 10.9742 58.4081 11.6956C57.6812 12.417 56.6955 12.8222 55.6676 12.8222H19.4946C11.3454 12.8222 7.8676 16.274 7.8676 24.3623V71.8046L20.9932 58.7772C21.9689 57.8163 23.2877 57.2771 24.6622 57.2771C26.0367 57.2771 27.3555 57.8163 28.3312 58.7772L33.1887 63.5983C33.6716 64.0682 34.321 64.3314 34.9973 64.3314C35.6736 64.3314 36.323 64.0682 36.806 63.5983L62.3337 38.2616C63.3094 37.3007 64.6282 36.7615 66.0027 36.7615C67.3772 36.7615 68.696 37.3007 69.6717 38.2616L93.1324 61.5468V44.8779C93.1324 43.8577 93.5407 42.8792 94.2676 42.1579C94.9944 41.4365 95.9802 41.0312 97.0081 41.0312C98.036 41.0312 99.0218 41.4365 99.7486 42.1579C100.475 42.8792 100.884 43.8577 100.884 44.8779ZM29.7936 28.2089C28.0779 28.2137 26.4342 28.8941 25.2236 30.1007C24.013 31.3074 23.3343 32.9415 23.3367 34.6444C23.3391 36.3473 24.0223 37.9796 25.2364 39.1828C26.4504 40.3861 28.096 41.0619 29.8117 41.0619C31.5274 41.0619 33.1729 40.3861 34.3869 39.1828C35.601 37.9796 36.2842 36.3473 36.2866 34.6444C36.289 32.9415 35.6104 31.3074 34.3997 30.1007C33.1891 28.8941 31.5454 28.2137 29.8297 28.2089H29.7936ZM76.3378 17.9511H82.7973V24.3623C82.7973 25.3825 83.2056 26.3609 83.9324 27.0823C84.6593 27.8037 85.6451 28.2089 86.6729 28.2089C87.7008 28.2089 88.6866 27.8037 89.4135 27.0823C90.1403 26.3609 90.5486 25.3825 90.5486 24.3623V17.9511H97.0081C98.036 17.9511 99.0218 17.5459 99.7486 16.8245C100.475 16.1031 100.884 15.1247 100.884 14.1045C100.884 13.0843 100.475 12.1059 99.7486 11.3845C99.0218 10.6631 98.036 10.2578 97.0081 10.2578H90.5486V3.84667C90.5486 2.82647 90.1403 1.84806 89.4135 1.12666C88.6866 0.405273 87.7008 0 86.6729 0C85.6451 0 84.6593 0.405273 83.9324 1.12666C83.2056 1.84806 82.7973 2.82647 82.7973 3.84667V10.2578H76.3378C75.3099 10.2578 74.3241 10.6631 73.5973 11.3845C72.8705 12.1059 72.4621 13.0843 72.4621 14.1045C72.4621 15.1247 72.8705 16.1031 73.5973 16.8245C74.3241 17.5459 75.3099 17.9511 76.3378 17.9511V17.9511Z" fill="#505050"/>
</svg>
