<svg width="115" height="123" viewBox="0 0 115 123" fill="none" xmlns="http://www.w3.org/2000/svg">
<path d="M102.716 12.6469H100.614V6.12854C100.614 2.74929 97.8647 0 94.4855 0C91.1062 0 88.3569 2.74929 88.3569 6.12854V12.6469H80.8031V6.12854C80.8033 2.74929 78.054 0 74.6748 0C71.2955 0 68.5462 2.74929 68.5462 6.12854V12.6469H60.9926V6.12854C60.9928 2.74929 58.2435 0 54.8643 0C51.485 0 48.7357 2.74929 48.7357 6.12854V12.6469H41.1819V6.12854C41.1821 2.74929 38.4328 0 35.0536 0C31.6743 0 28.925 2.74929 28.925 6.12854V12.6469H21.3712V6.12854C21.3714 2.74929 18.6223 0 15.2431 0C11.8638 0 9.11455 2.74929 9.11455 6.12854V12.6469H7.01294C3.14617 12.6469 0 15.7931 0 19.6599V108.54C0 112.407 3.14594 115.553 7.01294 115.553H82.2145C83.1557 115.553 83.9183 114.79 83.9183 113.849C83.9183 112.908 83.1557 112.145 82.2145 112.145H7.01294C5.02515 112.145 3.40765 110.528 3.40765 108.54V35.6561H25.158C26.099 35.6561 26.8618 34.8934 26.8618 33.9522C26.8618 33.011 26.099 32.2484 25.158 32.2484H3.40765V19.6599C3.40765 17.6718 5.02492 16.0546 7.01294 16.0546H9.11455V18.5671C9.11455 21.9464 11.8638 24.6957 15.2431 24.6957C18.6223 24.6957 21.3716 21.9464 21.3716 18.5671V16.0546H28.9255V18.5671C28.9255 21.9464 31.6748 24.6957 35.054 24.6957C38.4333 24.6957 41.1826 21.9464 41.1826 18.5671V16.0546H48.7364V18.5671C48.7364 21.9464 51.4857 24.6957 54.865 24.6957C58.2442 24.6957 60.9935 21.9464 60.9935 18.5671V16.0546H68.5471V18.5671C68.5471 21.9464 71.2964 24.6957 74.6757 24.6957C78.0549 24.6957 80.8042 21.9464 80.8042 18.5671V16.0546H88.3581V18.5671C88.3581 21.9464 91.1074 24.6957 94.4866 24.6957C97.8659 24.6957 100.615 21.9464 100.615 18.5671V16.0546H102.717C104.705 16.0546 106.322 17.6718 106.322 19.6599V32.2484H22.0432C21.1022 32.2484 20.3394 33.011 20.3394 33.9522C20.3394 34.8934 21.1022 35.6561 22.0432 35.6561H106.321V108.54C106.321 110.528 104.704 112.145 102.716 112.145H79.0995C78.1583 112.145 77.3957 112.908 77.3957 113.849C77.3957 114.79 78.1583 115.553 79.0995 115.553H102.716C106.582 115.553 109.729 112.407 109.729 108.54V19.6599C109.729 15.7931 106.582 12.6469 102.716 12.6469ZM17.9638 18.5671C17.9638 20.0674 16.7434 21.288 15.2429 21.288C13.7426 21.288 12.522 20.0674 12.522 18.5671V6.12854C12.5222 4.62827 13.7428 3.40765 15.2431 3.40765C16.7434 3.40765 17.964 4.62827 17.964 6.12854V18.5671H17.9638ZM37.7745 18.5671C37.7745 20.0674 36.5539 21.288 35.0536 21.288C33.5533 21.288 32.3327 20.0674 32.3327 18.5671V6.12854C32.3327 4.62827 33.5533 3.40765 35.0536 3.40765C36.5539 3.40765 37.7745 4.62827 37.7745 6.12854V18.5671ZM57.5852 18.5671C57.5852 20.0674 56.3646 21.288 54.8643 21.288C53.364 21.288 52.1434 20.0674 52.1434 18.5671V6.12854C52.1434 4.62827 53.364 3.40765 54.8643 3.40765C56.3646 3.40765 57.5852 4.62827 57.5852 6.12854V18.5671ZM77.3957 18.5671C77.3957 20.0674 76.175 21.288 74.6748 21.288C73.1747 21.288 71.9539 20.0674 71.9539 18.5671V6.12854C71.9539 4.62827 73.1745 3.40765 74.6748 3.40765C76.175 3.40765 77.3957 4.62827 77.3957 6.12854V18.5671ZM97.2064 18.5671C97.2064 20.0674 95.9857 21.288 94.4855 21.288C92.9854 21.288 91.7646 20.0674 91.7646 18.5671V6.12854C91.7646 4.62827 92.9852 3.40765 94.4855 3.40765C95.9857 3.40765 97.2064 4.62827 97.2064 6.12854V18.5671Z" fill="url(#paint0_linear_197_101)"/>
<path d="M20.9321 47.8477H14.9513C13.2996 47.8477 11.9609 49.1611 11.9609 50.7816C11.9609 52.4022 13.2996 53.7156 14.9513 53.7156H20.9321C22.5838 53.7156 23.9225 52.4022 23.9225 50.7816C23.9225 49.1611 22.5838 47.8477 20.9321 47.8477Z" fill="#D71C11"/>
<path d="M20.9321 68.6113H14.9513C13.2996 68.6113 11.9609 69.9247 11.9609 71.5453C11.9609 73.1658 13.2996 74.4793 14.9513 74.4793H20.9321C22.5838 74.4793 23.9225 73.1658 23.9225 71.5453C23.9225 69.9247 22.5838 68.6113 20.9321 68.6113Z" fill="#D71C11"/>
<path d="M20.9321 89.375H14.9513C13.2996 89.375 11.9609 90.6884 11.9609 92.309C11.9609 93.9295 13.2996 95.2429 14.9513 95.2429H20.9321C22.5838 95.2429 23.9225 93.9295 23.9225 92.309C23.9225 90.6884 22.5838 89.375 20.9321 89.375Z" fill="#D71C11"/>
<path d="M45.5297 47.8477H39.549C37.8973 47.8477 36.5586 49.1611 36.5586 50.7816C36.5586 52.4022 37.8973 53.7156 39.549 53.7156H45.5297C47.1815 53.7156 48.5201 52.4022 48.5201 50.7816C48.5201 49.1611 47.1815 47.8477 45.5297 47.8477Z" fill="#D71C11"/>
<path d="M45.5297 68.6113H39.549C37.8973 68.6113 36.5586 69.9247 36.5586 71.5453C36.5586 73.1658 37.8973 74.4793 39.549 74.4793H45.5297C47.1815 74.4793 48.5201 73.1658 48.5201 71.5453C48.5201 69.9247 47.1815 68.6113 45.5297 68.6113Z" fill="#D71C11"/>
<path d="M45.5297 89.375H39.549C37.8973 89.375 36.5586 90.6884 36.5586 92.309C36.5586 93.9295 37.8973 95.2429 39.549 95.2429H45.5297C47.1815 95.2429 48.5201 93.9295 48.5201 92.309C48.5201 90.6884 47.1815 89.375 45.5297 89.375Z" fill="#D71C11"/>
<path d="M70.1352 47.8477H64.1544C62.5027 47.8477 61.1641 49.1611 61.1641 50.7816C61.1641 52.4022 62.5027 53.7156 64.1544 53.7156H70.1352C71.7869 53.7156 73.1256 52.4022 73.1256 50.7816C73.1256 49.1611 71.7869 47.8477 70.1352 47.8477Z" fill="#D71C11"/>
<path d="M70.1352 68.6113H64.1544C62.5027 68.6113 61.1641 69.9247 61.1641 71.5453C61.1641 73.1658 62.5027 74.4793 64.1544 74.4793H70.1352C71.7869 74.4793 73.1256 73.1658 73.1256 71.5453C73.1256 69.9247 71.7869 68.6113 70.1352 68.6113Z" fill="#D71C11"/>
<path d="M70.1352 89.375H64.1544C62.5027 89.375 61.1641 90.6884 61.1641 92.309C61.1641 93.9295 62.5027 95.2429 64.1544 95.2429H70.1352C71.7869 95.2429 73.1256 93.9295 73.1256 92.309C73.1256 90.6884 71.7869 89.375 70.1352 89.375Z" fill="#D71C11"/>
<path d="M94.7329 47.8477H88.7521C87.1004 47.8477 85.7617 49.1611 85.7617 50.7816C85.7617 52.4022 87.1004 53.7156 88.7521 53.7156H94.7329C96.3846 53.7156 97.7233 52.4022 97.7233 50.7816C97.7233 49.1611 96.3846 47.8477 94.7329 47.8477Z" fill="#D71C11"/>
<path d="M94.7329 68.6113H88.7521C87.1004 68.6113 85.7617 69.9247 85.7617 71.5453C85.7617 73.1658 87.1004 74.4793 88.7521 74.4793H94.7329C96.3846 74.4793 97.7233 73.1658 97.7233 71.5453C97.7233 69.9247 96.3846 68.6113 94.7329 68.6113Z" fill="#D71C11"/>
<path d="M94.7329 89.375H88.7521C87.1004 89.375 85.7617 90.6884 85.7617 92.309C85.7617 93.9295 87.1004 95.2429 88.7521 95.2429H94.7329C96.3846 95.2429 97.7233 93.9295 97.7233 92.309C97.7233 90.6884 96.3846 89.375 94.7329 89.375Z" fill="#D71C11"/>
<circle cx="95.4679" cy="103.589" r="19.4093" fill="white"/>
<path d="M95.4679 84.1797C84.7658 84.1797 76.0586 92.8869 76.0586 103.589C76.0586 114.291 84.7658 122.998 95.4679 122.998C106.17 122.998 114.877 114.291 114.877 103.589C114.877 92.8869 106.17 84.1797 95.4679 84.1797ZM95.4679 120.572C86.1032 120.572 78.4848 112.954 78.4848 103.589C78.4848 94.2243 86.1032 86.6059 95.4679 86.6059C104.833 86.6059 112.451 94.2243 112.451 103.589C112.451 112.954 104.833 120.572 95.4679 120.572V120.572Z" fill="#C12E2A"/>
<path d="M96.684 91.457H94.2578V104.09L101.892 111.724L103.607 110.009L96.684 103.086V91.457Z" fill="#C12E2A"/>
<defs>
<linearGradient id="paint0_linear_197_101" x1="8.80189" y1="110.475" x2="84.6335" y2="1.12846" gradientUnits="userSpaceOnUse">
<stop stop-color="#BB3432"/>
<stop offset="1" stop-color="#E51202"/>
</linearGradient>
</defs>
</svg>
