<svg width="40" height="40" viewBox="0 0 40 40" fill="none" xmlns="http://www.w3.org/2000/svg">
<rect x="8" y="17.7783" width="4.44444" height="4.44444" fill="#595A59"/>
<rect x="8" y="27.5557" width="4.44444" height="4.44444" fill="#595A59"/>
<rect x="17.7773" y="17.7783" width="4.44444" height="4.44444" fill="#595A59"/>
<rect x="17.7773" y="27.5557" width="4.44444" height="4.44444" fill="#595A59"/>
<rect x="27.5557" y="17.7783" width="4.44444" height="4.44444" fill="#595A59"/>
<rect x="27.5557" y="27.5557" width="4.44444" height="4.44444" fill="#595A59"/>
<path d="M34.8438 3.125H31.25V1.25C31.25 0.559687 30.6904 0 30 0C29.3096 0 28.75 0.559687 28.75 1.25V3.125H11.25V1.25C11.25 0.559687 10.6904 0 10 0C9.30961 0 8.75 0.559687 8.75 1.25V3.125H5.15625C2.31305 3.125 0 5.43805 0 8.28125V34.8438C0 37.687 2.31305 40 5.15625 40H34.8438C37.687 40 40 37.687 40 34.8438V8.28125C40 5.43805 37.687 3.125 34.8438 3.125ZM37.5 34.8438C37.5 36.3108 36.3108 37.5 34.8438 37.5H5.15625C3.68922 37.5 2.5 36.3108 2.5 34.8438V14.1406C2.5 13.9249 2.67492 13.75 2.89062 13.75H37.1094C37.3251 13.75 37.5 13.9249 37.5 14.1406V34.8438Z" fill="#595A59"/>
</svg>
