<svg width="20" height="35" viewBox="0 0 20 35" fill="none" xmlns="http://www.w3.org/2000/svg">
<path d="M17.4576 0H2.54237C1.14047 0 0 1.14047 0 2.54237V32.1695C0 33.5714 1.14047 34.7119 2.54237 34.7119H17.4576C18.8595 34.7119 20 33.5714 20 32.1695V2.54237C20 1.14047 18.8595 0 17.4576 0ZM18.9831 27.5932H4.57627C4.29546 27.5932 4.0678 27.8209 4.0678 28.1017C4.0678 28.3825 4.29546 28.6102 4.57627 28.6102H18.9831V32.1695C18.9831 33.0106 18.2988 33.6949 17.4576 33.6949H2.54237C1.70122 33.6949 1.01695 33.0106 1.01695 32.1695V28.6102H2.54237C2.82319 28.6102 3.05085 28.3825 3.05085 28.1017C3.05085 27.8209 2.82319 27.5932 2.54237 27.5932H1.01695V5.08475H18.9831V27.5932ZM18.9831 4.0678H1.01695V2.54237C1.01695 1.70122 1.70122 1.01695 2.54237 1.01695H17.4576C18.2988 1.01695 18.9831 1.70122 18.9831 2.54237V4.0678Z" fill="#B02329"/>
<path d="M12.0346 2.03906H10.0007C9.71985 2.03906 9.49219 2.26672 9.49219 2.54754C9.49219 2.82835 9.71985 3.05601 10.0007 3.05601H12.0346C12.3154 3.05601 12.543 2.82835 12.543 2.54754C12.543 2.26672 12.3154 2.03906 12.0346 2.03906Z" fill="#B02329"/>
<path d="M10.0059 29.625C9.16474 29.625 8.48047 30.3093 8.48047 31.1504C8.48047 31.9916 9.16474 32.6758 10.0059 32.6758C10.847 32.6758 11.5313 31.9916 11.5313 31.1504C11.5313 30.3093 10.847 29.625 10.0059 29.625ZM10.0059 31.6589C9.72549 31.6589 9.49742 31.4308 9.49742 31.1504C9.49742 30.87 9.72549 30.6419 10.0059 30.6419C10.2863 30.6419 10.5144 30.87 10.5144 31.1504C10.5144 31.4308 10.2863 31.6589 10.0059 31.6589Z" fill="#B02329"/>
<path d="M7.96551 3.05601C8.24633 3.05601 8.47398 2.82836 8.47398 2.54754C8.47398 2.26671 8.24633 2.03906 7.96551 2.03906C7.68468 2.03906 7.45703 2.26671 7.45703 2.54754C7.45703 2.82836 7.68468 3.05601 7.96551 3.05601Z" fill="#B02329"/>
</svg>
