<svg width="37" height="34" viewBox="0 0 37 34" fill="none" xmlns="http://www.w3.org/2000/svg">
<path d="M33.3547 0H3.57372C1.60817 0 0 1.60817 0 3.57372C0 5.53927 1.60817 7.14744 3.57372 7.14744H33.3547C35.3203 7.14744 36.9285 5.53927 36.9285 3.57372C36.9285 1.60817 35.3203 0 33.3547 0Z" fill="white"/>
<path d="M33.3547 13.1016H3.57372C1.60817 13.1016 0 14.7097 0 16.6753C0 18.6408 1.60817 20.249 3.57372 20.249H33.3547C35.3203 20.249 36.9285 18.6408 36.9285 16.6753C36.9285 14.7097 35.3203 13.1016 33.3547 13.1016Z" fill="white"/>
<path d="M33.3547 26.207H3.57372C1.60817 26.207 0 27.8152 0 29.7808C0 31.7463 1.60817 33.3545 3.57372 33.3545H33.3547C35.3203 33.3545 36.9285 31.7463 36.9285 29.7808C36.9285 27.8152 35.3203 26.207 33.3547 26.207Z" fill="white"/>
</svg>
