<svg width="30" height="40" viewBox="0 0 30 40" fill="none" xmlns="http://www.w3.org/2000/svg">
<path d="M21.058 0H0.939229C0.444872 0 0 0.395469 0 0.939229V38.6063C0 39.1007 0.395469 39.5455 0.939229 39.5455H29.0166C29.5109 39.5455 29.9558 39.1501 29.9558 38.6063V8.89777C29.9558 8.65059 29.8569 8.40342 29.7086 8.25513L21.7006 0.247179C21.5029 0.0988879 21.3051 0 21.058 0Z" fill="#BB2624"/>
<path d="M22.3834 8.52273H30.0003C29.9502 8.42302 29.9 8.3234 29.7999 8.2735L25.7408 4.23637L21.7319 0.199329C21.6317 0.099623 21.5816 0.0498115 21.4814 0V7.57573C21.4313 8.12399 21.8823 8.52273 22.3834 8.52273Z" fill="white"/>
<path d="M22.7673 7.84126H29.3178C29.2748 7.75552 29.2316 7.66984 29.1455 7.62693L25.6547 4.155L22.2071 0.683141C22.1208 0.597394 22.0778 0.554557 21.9916 0.511719V7.02685C21.9485 7.49835 22.3363 7.84126 22.7673 7.84126Z" fill="#BB2624"/>
<path d="M6.52519 34.9483C5.83314 34.9483 5.28938 34.5529 5.0422 34.3057C4.20186 33.3171 4.20186 32.4767 4.35015 31.933C4.44903 31.4386 4.74562 30.9937 5.19049 30.6972C5.83314 30.2028 7.61263 28.9671 10.2325 27.8795C11.6166 25.3585 12.5559 23.3318 13.1984 21.7006C12.1109 19.6244 11.7154 17.9437 11.6166 17.1034C11.5178 16.4113 11.5672 15.7193 11.7649 15.1261C12.2593 13.5443 13.3467 13.4949 13.7916 13.5443C13.8905 13.5443 15.6206 13.7915 15.9172 16.2631C15.9172 16.3619 16.1148 17.9437 14.7802 21.6511C15.6206 23.0846 16.8069 24.6665 18.636 26.1989C20.366 26.1989 22.2445 26.3472 24.2218 26.8415C24.6666 26.9404 25.0621 27.1875 25.3587 27.5336C25.853 28.0773 25.9518 28.7694 25.7047 29.4614C25.7047 29.4614 25.6058 29.8074 25.3092 30.1535C24.7654 30.8949 23.7274 31.1421 22.8871 30.6972C21.0087 29.7086 19.4268 28.6706 18.1416 27.583C15.5217 27.6819 13.1984 28.2751 11.32 29.0165C10.4796 30.5489 9.4416 32.2296 8.25519 34.108C8.00801 34.454 7.71143 34.7506 7.31596 34.8989C6.97006 34.8989 6.72288 34.9483 6.52519 34.9483ZM8.94732 29.9557C7.46433 30.7466 6.4263 31.4387 6.03083 31.7847C5.88254 31.933 5.73425 32.0813 5.73425 32.2295C5.63536 32.5755 5.78365 32.9216 6.12972 33.3171C6.12972 33.3171 6.4263 33.5642 6.72288 33.4654C6.82177 33.416 6.92057 33.3665 6.97006 33.2182C7.66211 32.0813 8.35416 30.9937 8.94732 29.9557ZM20.4649 27.583C21.3547 28.1761 22.3433 28.8188 23.4308 29.3625C23.6285 29.4614 23.8757 29.4119 24.024 29.2142C24.1723 29.0165 24.2217 28.8683 24.2217 28.8683C24.3206 28.6211 24.3206 28.5223 24.1723 28.3739C24.0734 28.275 23.9251 28.1762 23.7274 28.1267C22.64 27.8301 21.5524 27.6819 20.4649 27.583ZM14.0388 23.1836C13.5444 24.3205 12.9513 25.6057 12.1604 27.0887C13.4951 26.6932 14.9286 26.3472 16.5104 26.1989C15.5218 25.1608 14.6814 24.1227 14.0388 23.1836ZM13.5445 14.879C13.3468 14.879 13.1985 15.0766 13.0501 15.5216C12.9019 15.9171 12.9019 16.3619 12.9513 16.8563C13.0501 17.4495 13.2478 18.4381 13.7916 19.7233C14.5331 17.3506 14.4342 16.3619 14.4342 16.3619C14.286 15.0272 13.5939 14.879 13.5445 14.879Z" fill="white"/>
</svg>
