<svg width="143" height="143" viewBox="0 0 143 143" fill="none" xmlns="http://www.w3.org/2000/svg">
<path d="M44.3153 37.3485C43.6386 36.4953 43.7794 35.2512 44.6614 34.6125C53.2258 28.4109 63.7222 25.4107 74.3102 26.1792C85.5551 26.9953 96.084 32.0029 103.813 40.2109C111.543 48.4189 115.909 59.2293 116.049 70.5029C116.189 81.7766 112.092 92.692 104.569 101.089C97.0452 109.486 86.6438 114.754 75.4226 115.848C64.2014 116.943 52.978 113.786 43.9733 107.001C34.9687 100.217 28.8389 90.2993 26.7969 79.2112C24.8742 68.7709 26.7077 58.0092 31.9346 48.8175C32.4729 47.8709 33.6941 47.5948 34.6163 48.1741V48.1741C35.5384 48.7533 35.8119 49.9682 35.2776 50.9171C30.5739 59.2701 28.9315 69.0285 30.6752 78.497C32.5382 88.6134 38.1308 97.6618 46.3464 103.852C54.5619 110.042 64.8018 112.923 75.0396 111.924C85.2775 110.925 94.7674 106.119 101.632 98.4578C108.496 90.7964 112.234 80.8376 112.106 70.5519C111.978 60.2662 107.995 50.4031 100.942 42.9144C93.8905 35.4256 84.2843 30.8569 74.0248 30.1123C64.4223 29.4154 54.9023 32.1159 47.1143 37.7056C46.2296 38.3405 44.992 38.2017 44.3153 37.3485V37.3485Z" fill="#47AC4E"/>
<path d="M36.9126 44.8764C36.0485 44.2138 35.8818 42.973 36.5816 42.1387C37.4311 41.126 38.3248 40.1512 39.2601 39.2171C40.0307 38.4476 41.2812 38.5062 42.0162 39.3097V39.3097C42.7512 40.1132 42.692 41.3571 41.9247 42.1298C41.1561 42.9038 40.4187 43.7081 39.7142 44.5409C39.0109 45.3722 37.7768 45.539 36.9126 44.8764V44.8764Z" fill="#47AC4E"/>
<path d="M90.0145 99.3238C90.5059 100.051 90.3164 101.042 89.5685 101.501C82.3062 105.959 73.6879 107.725 65.2273 106.458C56.2417 105.112 48.0887 100.443 42.3815 93.3728C36.6744 86.3031 33.829 77.3487 34.4084 68.2814C34.9878 59.2141 38.9498 50.6946 45.5103 44.4088C52.0709 38.123 60.752 34.5289 69.8358 34.3378C78.9195 34.1466 87.7442 37.3722 94.5634 43.3764C101.383 49.3806 105.699 57.7258 106.66 66.7607C107.564 75.2678 105.431 83.8027 100.667 90.8678C100.176 91.5954 99.1777 91.7423 98.4723 91.2203V91.2203C97.7668 90.6982 97.6216 89.7052 98.1092 88.9756C102.401 82.5522 104.32 74.8119 103.5 67.0966C102.624 58.8535 98.6849 51.2396 92.4633 45.7616C86.2417 40.2835 78.1904 37.3406 69.9026 37.515C61.6149 37.6894 53.6945 40.9685 47.7089 46.7035C41.7233 52.4384 38.1085 60.2113 37.5799 68.484C37.0512 76.7567 39.6473 84.9265 44.8543 91.3767C50.0613 97.8268 57.4998 102.087 65.698 103.315C73.3711 104.465 81.1864 102.879 87.7874 98.8651C88.5372 98.4092 89.5231 98.5967 90.0145 99.3238V99.3238Z" fill="#47AC4E"/>
<path d="M96.4256 93.727C97.0793 94.3124 97.1371 95.3197 96.5236 95.9471C95.7788 96.7087 95.0009 97.4372 94.192 98.1303C93.5257 98.7013 92.5244 98.5775 91.9831 97.8868V97.8868C91.4418 97.1961 91.5658 96.2002 92.2297 95.6264C92.8948 95.0516 93.5367 94.4505 94.1538 93.8247C94.77 93.1998 95.7719 93.1415 96.4256 93.727V93.727Z" fill="#47AC4E"/>
<path d="M90.0706 56.9416C88.8329 55.6858 86.8233 55.6865 85.584 56.9416L65.3915 77.4046L56.4168 68.3101C55.1775 67.0543 53.1687 67.0543 51.9294 68.3101C50.6902 69.5659 50.6902 71.6015 51.9294 72.8573L63.1473 84.2251C63.7666 84.8526 64.5786 85.1671 65.3906 85.1671C66.2027 85.1671 67.0154 84.8534 67.6347 84.2251L90.0706 61.4887C91.3098 60.2338 91.3098 58.1973 90.0706 56.9416Z" fill="#47AC4E"/>
</svg>
